<svg width="51" height="55" viewBox="0 0 51 55" fill="none" xmlns="http://www.w3.org/2000/svg">
<path d="M39.8867 47.3981L50.9908 41.8379L11.1621 21.956L0.0416549 27.5L39.8704 47.3981H39.8867ZM25.5 54.5833L36.6529 49.0231L11.1621 36.2777L0.0904052 41.8379L25.5 54.5833ZM50.9583 27.5L39.8379 33.0439L28.75 27.5L39.8542 21.956L50.9583 27.5ZM14.3633 5.99312L25.5162 0.416656L36.6529 5.99312L25.5 11.5371L14.3633 5.97687V5.99312ZM11.1133 7.60186L0.00915527 13.1621L25.5 25.8912L36.6042 20.3473L11.1133 7.61811V7.60186ZM39.8379 18.7385L50.9746 13.1594L39.8704 7.63437L28.7175 13.1946L39.8379 18.7385Z" fill="url(#paint0_linear_90_418)"/>
<defs>
<linearGradient id="paint0_linear_90_418" x1="25.5" y1="0.416656" x2="25.5" y2="54.5833" gradientUnits="userSpaceOnUse">
<stop stop-color="#BBFF00"/>
<stop offset="1" stop-color="#709900"/>
</linearGradient>
</defs>
</svg>
