<svg width="56" height="65" viewBox="0 0 56 65" fill="none" xmlns="http://www.w3.org/2000/svg">
<path d="M56 9.83997L28 0L0 9.83997V32.5C0 44.1027 7.0952 52.2137 13.7088 57.2489C17.7018 60.2584 22.0814 62.7124 26.7288 64.5446C27.0461 64.6645 27.3653 64.7788 27.6864 64.8875L28 65L28.3192 64.8875C28.9314 64.674 29.5383 64.4453 30.1392 64.2016C34.4673 62.4111 38.5508 60.0748 42.2912 57.2489C48.9076 52.2137 56 44.1027 56 32.5V9.83997ZM25.2028 42.101L13.328 30.1721L17.2872 26.194L25.2056 34.1475L41.0452 18.2433L45.0072 22.2186L25.2028 42.101Z" fill="url(#paint0_linear_90_430)"/>
<defs>
<linearGradient id="paint0_linear_90_430" x1="28" y1="0" x2="28" y2="65" gradientUnits="userSpaceOnUse">
<stop stop-color="#BBFF00"/>
<stop offset="1" stop-color="#709900"/>
</linearGradient>
</defs>
</svg>
