<svg width="45" height="62" viewBox="0 0 45 62" fill="none" xmlns="http://www.w3.org/2000/svg">
<path d="M36.7188 0.53125H8.28125C6.12709 0.533602 4.06183 1.39038 2.53861 2.91361C1.01538 4.43683 0.158602 6.50209 0.15625 8.65625V53.3438C0.158602 55.4979 1.01538 57.5632 2.53861 59.0864C4.06183 60.6096 6.12709 61.4664 8.28125 61.4688H36.7188C38.8729 61.4664 40.9382 60.6096 42.4614 59.0864C43.9846 57.5632 44.8414 55.4979 44.8438 53.3438V8.65625C44.8414 6.50209 43.9846 4.43683 42.4614 2.91361C40.9382 1.39038 38.8729 0.533602 36.7188 0.53125ZM32.3363 34.6194C33.2974 35.6566 33.7671 37.0519 33.6554 38.5474C33.4357 41.5257 31.1646 43.9492 28.5938 43.9492C26.0229 43.9492 23.7479 41.5257 23.5309 38.5474C23.4217 37.0366 23.8876 35.6389 24.8436 34.6118C25.7995 33.5848 27.1211 33.0312 28.5938 33.0312C29.2937 33.0212 29.9881 33.1572 30.6325 33.4307C31.2769 33.7041 31.8572 34.109 32.3363 34.6194ZM14.375 8.65625C14.375 8.11753 14.589 7.60087 14.9699 7.21994C15.3509 6.83901 15.8675 6.625 16.4062 6.625H28.5938C29.1325 6.625 29.6491 6.83901 30.0301 7.21994C30.411 7.60087 30.625 8.11753 30.625 8.65625C30.625 9.19497 30.411 9.71163 30.0301 10.0926C29.6491 10.4735 29.1325 10.6875 28.5938 10.6875H16.4062C15.8675 10.6875 15.3509 10.4735 14.9699 10.0926C14.589 9.71163 14.375 9.19497 14.375 8.65625ZM38.3691 54.8456C38.2228 55.0149 38.0412 55.1501 37.837 55.2415C37.6327 55.333 37.4109 55.3786 37.1872 55.375H20.0003C19.7766 55.3786 19.5548 55.333 19.3505 55.2415C19.1463 55.1501 18.9647 55.0149 18.8184 54.8456C18.6597 54.6556 18.5459 54.4323 18.4852 54.1924C18.4246 53.9524 18.4187 53.7018 18.468 53.4593C18.8806 51.23 20.1666 49.3574 22.1877 48.0435C23.9828 46.8768 26.2578 46.2344 28.5938 46.2344C30.9297 46.2344 33.2047 46.8768 34.9998 48.0435C37.0209 49.3574 38.3069 51.23 38.7195 53.4593C38.7688 53.7018 38.7629 53.9524 38.7023 54.1924C38.6416 54.4323 38.5278 54.6556 38.3691 54.8456Z" fill="url(#paint0_linear_90_428)"/>
<defs>
<linearGradient id="paint0_linear_90_428" x1="22.5" y1="0.53125" x2="22.5" y2="61.4687" gradientUnits="userSpaceOnUse">
<stop stop-color="#BBFF00"/>
<stop offset="1" stop-color="#709900"/>
</linearGradient>
</defs>
</svg>
