<svg width="23" height="20" viewBox="0 0 23 20" fill="none" xmlns="http://www.w3.org/2000/svg">
<path d="M12.8662 0.492592L22.4535 8.81906C22.6281 8.97744 22.7649 9.16419 22.8562 9.36861C23.0479 9.77404 23.0479 10.2288 22.8562 10.6342C22.7649 10.8386 22.6281 11.0254 22.4535 11.1838L12.8662 19.5103C12.6874 19.6655 12.4752 19.7887 12.2416 19.8727C12.008 19.9567 11.7576 20 11.5048 20C10.9942 20 10.5044 19.8238 10.1434 19.5103C9.78231 19.1967 9.57947 18.7714 9.57947 18.3279C9.57947 17.8844 9.78231 17.4591 10.1434 17.1455L16.471 11.6667L1.91746 11.6667C1.40892 11.6667 0.921204 11.4913 0.56161 11.179C0.202015 10.8667 -1.33611e-06 10.4431 -1.30971e-06 10.0014C-1.28331e-06 9.55976 0.202016 9.13618 0.56161 8.82388C0.921204 8.51158 1.40892 8.33613 1.91746 8.33613L16.471 8.33613L10.1434 2.85731C9.96366 2.7025 9.82101 2.51831 9.72367 2.31538C9.62632 2.11245 9.5762 1.89479 9.5762 1.67495C9.5762 1.45511 9.62632 1.23745 9.72367 1.03451C9.82101 0.831585 9.96366 0.647403 10.1434 0.492591C10.3216 0.336505 10.5337 0.212616 10.7674 0.12807C11.001 0.0435253 11.2517 -3.7555e-07 11.5048 -3.67459e-07C11.7579 -3.59367e-07 12.0085 0.0435253 12.2422 0.12807C12.4759 0.212616 12.6879 0.336506 12.8662 0.492592Z" fill="white"/>
</svg>
