<svg width="26" height="26" viewBox="0 0 26 26" fill="none" xmlns="http://www.w3.org/2000/svg">
<path d="M13 9.776C12.3624 9.776 11.739 9.96508 11.2088 10.3193C10.6787 10.6736 10.2654 11.1771 10.0214 11.7662C9.77739 12.3553 9.71355 13.0036 9.83795 13.629C9.96235 14.2544 10.2694 14.8288 10.7203 15.2797C11.1712 15.7306 11.7456 16.0377 12.371 16.1621C12.9964 16.2864 13.6447 16.2226 14.2338 15.9786C14.8229 15.7346 15.3264 15.3213 15.6807 14.7912C16.0349 14.261 16.224 13.6376 16.224 13C16.224 12.5766 16.1406 12.1574 15.9786 11.7662C15.8166 11.3751 15.5791 11.0197 15.2797 10.7203C14.9803 10.4209 14.6249 10.1834 14.2338 10.0214C13.8426 9.85939 13.4234 9.776 13 9.776ZM25.909 6.591C25.903 5.58701 25.7181 4.59212 25.363 3.653C25.1021 2.96564 24.6983 2.34142 24.1785 1.82154C23.6586 1.30166 23.0344 0.897933 22.347 0.637C21.4079 0.281902 20.413 0.0970111 19.409 0.0909999C17.732 -8.9407e-08 17.238 0 13 0C8.762 0 8.268 -8.9407e-08 6.591 0.0909999C5.58701 0.0970111 4.59212 0.281902 3.653 0.637C2.96564 0.897933 2.34142 1.30166 1.82154 1.82154C1.30166 2.34142 0.897933 2.96564 0.637 3.653C0.281902 4.59212 0.0970111 5.58701 0.0909999 6.591C-8.9407e-08 8.268 0 8.762 0 13C0 17.238 -8.9407e-08 17.732 0.0909999 19.409C0.105989 20.4163 0.290571 21.414 0.637 22.36C0.895316 23.045 1.2989 23.6659 1.82 24.18C2.33792 24.7027 2.96339 25.1064 3.653 25.363C4.59212 25.7181 5.58701 25.903 6.591 25.909C8.268 26 8.762 26 13 26C17.238 26 17.732 26 19.409 25.909C20.413 25.903 21.4079 25.7181 22.347 25.363C23.0366 25.1064 23.6621 24.7027 24.18 24.18C24.7011 23.6659 25.1047 23.045 25.363 22.36C25.717 21.416 25.9018 20.4171 25.909 19.409C26 17.732 26 17.238 26 13C26 8.762 26 8.268 25.909 6.591ZM22.607 16.991C22.566 17.7933 22.3947 18.5836 22.1 19.331C21.8476 19.9546 21.4724 20.5211 20.9968 20.9968C20.5211 21.4724 19.9546 21.8476 19.331 22.1C18.5766 22.3783 17.7818 22.532 16.978 22.555H9.022C8.21817 22.532 7.42345 22.3783 6.669 22.1C6.02413 21.8608 5.44187 21.4786 4.966 20.982C4.49464 20.5159 4.13082 19.9524 3.9 19.331C3.62146 18.5771 3.47204 17.7816 3.458 16.978V9.022C3.47204 8.2184 3.62146 7.42292 3.9 6.669C4.13916 6.02413 4.52141 5.44187 5.018 4.966C5.48668 4.49782 6.04942 4.13448 6.669 3.9C7.42345 3.62166 8.21817 3.46798 9.022 3.445H16.978C17.7818 3.46798 18.5766 3.62166 19.331 3.9C19.9759 4.13916 20.5581 4.52141 21.034 5.018C21.5054 5.48411 21.8692 6.04758 22.1 6.669C22.3783 7.42345 22.532 8.21817 22.555 9.022V13C22.555 15.678 22.646 15.951 22.607 16.978V16.991ZM20.527 7.319C20.3722 6.89908 20.1282 6.51773 19.8117 6.20128C19.4953 5.88482 19.1139 5.64078 18.694 5.486C18.1174 5.28614 17.5101 5.18933 16.9 5.2H9.1C8.48675 5.20599 7.87939 5.32042 7.306 5.538C6.89251 5.68575 6.5152 5.91983 6.19916 6.22466C5.88312 6.5295 5.63558 6.89811 5.473 7.306C5.2849 7.88514 5.19268 8.49112 5.2 9.1V16.9C5.2136 17.5125 5.32779 18.1186 5.538 18.694C5.69278 19.1139 5.93682 19.4953 6.25328 19.8117C6.56973 20.1282 6.95108 20.3722 7.371 20.527C7.92584 20.7303 8.50942 20.8444 9.1 20.865H16.9C17.5133 20.859 18.1206 20.7446 18.694 20.527C19.1139 20.3722 19.4953 20.1282 19.8117 19.8117C20.1282 19.4953 20.3722 19.1139 20.527 18.694C20.7446 18.1206 20.859 17.5133 20.865 16.9V9.1C20.8648 8.48619 20.7501 7.87781 20.527 7.306V7.319ZM13 17.966C12.3485 17.966 11.7033 17.8375 11.1016 17.5877C10.4998 17.338 9.95319 16.972 9.4931 16.5107C9.033 16.0494 8.66843 15.5018 8.42029 14.8994C8.17214 14.297 8.04529 13.6515 8.047 13C8.047 12.0173 8.33858 11.0566 8.88483 10.2397C9.43108 9.42276 10.2074 8.78626 11.1156 8.41078C12.0238 8.0353 13.0229 7.93772 13.9866 8.13039C14.9503 8.32306 15.8351 8.79732 16.5291 9.49313C17.2231 10.1889 17.695 11.075 17.8852 12.0392C18.0753 13.0033 17.9751 14.0022 17.5972 14.9094C17.2194 15.8166 16.5809 16.5913 15.7625 17.1354C14.9441 17.6795 13.9827 17.9686 13 17.966ZM18.2 9.009C17.9126 8.97858 17.6467 8.84289 17.4534 8.62806C17.2601 8.41324 17.1532 8.13448 17.1532 7.8455C17.1532 7.55652 17.2601 7.27776 17.4534 7.06294C17.6467 6.84811 17.9126 6.71242 18.2 6.682C18.4874 6.71242 18.7533 6.84811 18.9466 7.06294C19.1399 7.27776 19.2468 7.55652 19.2468 7.8455C19.2468 8.13448 19.1399 8.41324 18.9466 8.62806C18.7533 8.84289 18.4874 8.97858 18.2 9.009Z" fill="url(#paint0_linear_90_480)"/>
<defs>
<linearGradient id="paint0_linear_90_480" x1="0" y1="13" x2="26" y2="13" gradientUnits="userSpaceOnUse">
<stop stop-color="#BBFF00"/>
<stop offset="1" stop-color="#709900"/>
</linearGradient>
</defs>
</svg>
