<svg width="24" height="24" viewBox="0 0 24 24" fill="none" xmlns="http://www.w3.org/2000/svg">
<path d="M3.42857 0C1.5375 0 0 1.5375 0 3.42857V20.5714C0 22.4625 1.5375 24 3.42857 24H20.5714C22.4625 24 24 22.4625 24 20.5714V3.42857C24 1.5375 22.4625 0 20.5714 0H3.42857ZM18.8196 8.9625C18.8196 13.6071 15.2839 18.9589 8.82321 18.9589C6.83036 18.9589 4.98214 18.3804 3.42857 17.3839C3.7125 17.4161 3.98571 17.4268 4.275 17.4268C5.91964 17.4268 7.43036 16.8696 8.63571 15.9268C7.09286 15.8946 5.79643 14.8821 5.35179 13.4893C5.89286 13.5696 6.38036 13.5696 6.9375 13.425C5.33036 13.0982 4.125 11.6839 4.125 9.975V9.93214C4.59107 10.1946 5.1375 10.3554 5.71071 10.3768C5.22857 10.0554 4.83214 9.62143 4.55893 9.1125C4.28571 8.60357 4.14107 8.03036 4.14643 7.45179C4.14643 6.79821 4.31786 6.19821 4.62321 5.67857C6.35357 7.81071 8.95179 9.20357 11.8661 9.35357C11.3679 6.96964 13.1518 5.03571 15.2946 5.03571C16.3071 5.03571 17.2179 5.45893 17.8607 6.14464C18.6536 5.99464 19.4143 5.7 20.0893 5.29821C19.8268 6.1125 19.275 6.79821 18.5464 7.23214C19.2536 7.15714 19.9393 6.95893 20.5714 6.68571C20.0946 7.3875 19.4946 8.00893 18.8089 8.50714C18.8196 8.65714 18.8196 8.8125 18.8196 8.9625Z" fill="url(#paint0_linear_90_466)"/>
<defs>
<linearGradient id="paint0_linear_90_466" x1="0" y1="12" x2="24" y2="12" gradientUnits="userSpaceOnUse">
<stop stop-color="#BBFF00"/>
<stop offset="1" stop-color="#709900"/>
</linearGradient>
</defs>
</svg>
