<svg width="35" height="33" viewBox="0 0 35 33" fill="none" xmlns="http://www.w3.org/2000/svg">
<path d="M16.4019 1.63311C16.7013 0.711797 18.0047 0.711794 18.304 1.63311L21.5725 11.6923C21.7064 12.1043 22.0903 12.3833 22.5235 12.3833H33.1004C34.0692 12.3833 34.4719 13.6229 33.6882 14.1923L25.1313 20.4093C24.7808 20.6639 24.6342 21.1153 24.7681 21.5273L28.0365 31.5865C28.3359 32.5078 27.2814 33.274 26.4977 32.7046L17.9408 26.4876C17.5903 26.233 17.1157 26.233 16.7652 26.4876L8.20832 32.7046C7.42461 33.274 6.37013 32.5078 6.66948 31.5865L9.93792 21.5273C10.0718 21.1153 9.92513 20.6639 9.57465 20.4093L1.01777 14.1923C0.234052 13.6229 0.636825 12.3833 1.60555 12.3833H12.1824C12.6157 12.3833 12.9996 12.1043 13.1335 11.6923L16.4019 1.63311Z" fill="#BBFF00"/>
</svg>
