<svg width="27" height="28" viewBox="0 0 27 28" fill="none" xmlns="http://www.w3.org/2000/svg">
<path d="M5.45317 14.0001C5.45121 15.9311 6.13249 17.8006 7.37642 19.2776C8.62035 20.7546 10.3467 21.7439 12.25 22.0704C14.1532 22.3969 16.1106 22.0395 17.7756 21.0615C19.4407 20.0835 20.7061 18.548 21.3478 16.7267H13.6329V11.2735H27V16.7267H26.9932C25.7294 22.9488 20.2285 27.633 13.6329 27.633C6.10346 27.633 0 21.5296 0 14.0001C0 6.47065 6.10346 0.367191 13.6329 0.367191C15.8612 0.365604 18.0559 0.910803 20.0245 1.95497C21.993 2.99914 23.6753 4.51037 24.9237 6.35613L20.4548 9.48489C19.4847 8.01854 18.0679 6.90381 16.4145 6.30591C14.7611 5.70802 12.959 5.65879 11.2754 6.16552C9.59183 6.67225 8.11632 7.70798 7.06759 9.11917C6.01887 10.5304 5.45275 12.2419 5.45317 14.0001Z" fill="white"/>
</svg>
