<svg width="102" height="102" viewBox="0 0 102 102" fill="none" xmlns="http://www.w3.org/2000/svg">
<path fill-rule="evenodd" clip-rule="evenodd" d="M0.5 97.6156C0.5 96.5853 0.909272 95.5972 1.63778 94.8687C2.36628 94.1402 3.35435 93.731 4.38462 93.731H97.6154C98.6457 93.731 99.6337 94.1402 100.362 94.8687C101.091 95.5972 101.5 96.5853 101.5 97.6156C101.5 98.6458 101.091 99.6339 100.362 100.362C99.6337 101.091 98.6457 101.5 97.6154 101.5H4.38462C3.35435 101.5 2.36628 101.091 1.63778 100.362C0.909272 99.6339 0.5 98.6458 0.5 97.6156Z" fill="url(#paint0_linear_47_1519)"/>
<path d="M27.6924 47.1155H12.1539C10.0085 47.1155 8.26929 48.8547 8.26929 51.0001V97.6155C8.26929 99.7609 10.0085 101.5 12.1539 101.5H27.6924C29.8378 101.5 31.577 99.7609 31.577 97.6155V51.0001C31.577 48.8547 29.8378 47.1155 27.6924 47.1155Z" fill="url(#paint1_linear_47_1519)"/>
<path d="M58.7693 0.5H43.2308C41.0854 0.5 39.3462 2.2392 39.3462 4.38462V97.6154C39.3462 99.7608 41.0854 101.5 43.2308 101.5H58.7693C60.9147 101.5 62.6539 99.7608 62.6539 97.6154V4.38462C62.6539 2.2392 60.9147 0.5 58.7693 0.5Z" fill="url(#paint2_linear_47_1519)"/>
<path d="M89.8462 23.8076H74.3077C72.1623 23.8076 70.4231 25.5468 70.4231 27.6922V97.6153C70.4231 99.7607 72.1623 101.5 74.3077 101.5H89.8462C91.9916 101.5 93.7308 99.7607 93.7308 97.6153V27.6922C93.7308 25.5468 91.9916 23.8076 89.8462 23.8076Z" fill="url(#paint3_linear_47_1519)"/>
<defs>
<linearGradient id="paint0_linear_47_1519" x1="51" y1="93.731" x2="51" y2="101.5" gradientUnits="userSpaceOnUse">
<stop stop-color="#BBFF00"/>
<stop offset="0.0001" stop-color="#709900"/>
</linearGradient>
<linearGradient id="paint1_linear_47_1519" x1="19.9231" y1="47.1155" x2="19.9231" y2="101.5" gradientUnits="userSpaceOnUse">
<stop stop-color="#BBFF00"/>
<stop offset="1" stop-color="#709900"/>
</linearGradient>
<linearGradient id="paint2_linear_47_1519" x1="51" y1="0.5" x2="51" y2="101.5" gradientUnits="userSpaceOnUse">
<stop stop-color="#BBFF00"/>
<stop offset="1" stop-color="#709900"/>
</linearGradient>
<linearGradient id="paint3_linear_47_1519" x1="82.0769" y1="23.8076" x2="82.0769" y2="101.5" gradientUnits="userSpaceOnUse">
<stop stop-color="#BBFF00"/>
<stop offset="1" stop-color="#709900"/>
</linearGradient>
</defs>
</svg>
