<svg width="52" height="51" viewBox="0 0 52 51" fill="none" xmlns="http://www.w3.org/2000/svg">
<path d="M25.8755 0.00215773C29.9313 0.00215773 33.7921 0.927822 37.2543 2.5828C37.7981 2.82662 38.3441 3.11791 38.8858 3.41136L36.5112 5.50436L32.9515 1.85349L26.8158 7.21112L23.2041 3.36174L11.9228 13.3477L19.1461 21.191L16.3253 23.6249L23.4533 31.4683L20.6324 33.9022L30.8239 45.0576L36.8578 39.6007L42.1031 45.4482C41.0632 46.2271 39.9257 47.0082 38.6908 47.69C34.7906 49.8643 30.3949 51.0041 25.9253 51C11.626 51 0.000159566 39.5533 0.000159566 25.4784C-0.0496715 11.4964 11.5783 0 25.8755 0M21.1242 23.9162L27.3098 18.4615L32.8519 24.5484L26.6663 30.0053L21.1242 23.9162ZM25.5289 34.4373L31.6646 28.9351L37.2543 35.022L31.0688 40.4789L25.5289 34.4373ZM16.7261 13.5462L22.9095 8.08931L28.4494 14.1784L22.266 19.6331L16.7261 13.5462ZM28.0529 10.6225L32.6547 6.53143L36.8123 11.0605L32.2105 15.2012L28.0529 10.6225ZM36.2685 29.3753L40.8682 25.2842L45.0236 29.8608L40.4219 33.9561L36.2685 29.3753ZM40.3244 38.5823L44.9262 34.4891L49.0795 39.0203L44.4798 43.1588L40.3244 38.5823ZM42.2049 17.538L45.2706 14.8106L48.0417 17.8314L44.9738 20.5588L42.2049 17.538ZM38.2466 8.52733L41.3145 5.75249L44.0877 8.82078L41.0155 11.5481L38.2466 8.52733ZM46.1113 26.5508L49.1791 23.8234L52 26.8443L48.8845 29.5716L46.1113 26.5508ZM32.3102 19.7799L36.912 15.6888L41.0675 20.2179L36.4657 24.3111L32.3102 19.7799Z" fill="url(#paint0_linear_47_1171)"/>
<defs>
<linearGradient id="paint0_linear_47_1171" x1="0" y1="25.5" x2="52" y2="25.5" gradientUnits="userSpaceOnUse">
<stop stop-color="#BBFF00"/>
<stop offset="1" stop-color="#709900"/>
</linearGradient>
</defs>
</svg>
