<svg width="27" height="28" viewBox="0 0 27 28" fill="none" xmlns="http://www.w3.org/2000/svg">
<path d="M25.2048 11.5336C25.5069 10.6229 25.6119 9.65976 25.5129 8.70653C25.4139 7.75329 25.1132 6.83119 24.6303 5.9999C23.1434 3.43355 20.1381 2.1335 17.1999 2.7329C15.9154 1.30055 14.025 0.5 12.0648 0.5C10.6058 0.500159 9.18405 0.954408 8.00178 1.79812C6.81952 2.64182 5.93697 3.83202 5.47971 5.19935C4.52801 5.39293 3.62902 5.78442 2.84264 6.34775C2.05625 6.91108 1.40052 7.63332 0.919127 8.46635C0.194372 9.71357 -0.114011 11.1544 0.0377297 12.5843C0.189471 14.0143 0.79363 15.3607 1.76449 16.4327C1.46628 17.3457 1.36623 18.3104 1.47088 19.264C1.57552 20.2177 1.8825 21.1389 2.37184 21.9677C3.09708 23.2215 4.20872 24.2143 5.54508 24.8016C6.88144 25.389 8.37282 25.5402 9.80228 25.2333C10.4501 25.944 11.2417 26.5129 12.1259 26.9033C13.0101 27.2937 13.9674 27.497 14.936 27.5C16.3952 27.5001 17.8173 27.046 18.9998 26.2023C20.1824 25.3586 21.0651 24.1682 21.5225 22.8006C22.4739 22.6069 23.3726 22.2153 24.1588 21.652C24.9449 21.0887 25.6004 20.3665 26.0817 19.5336C26.8101 18.2795 27.1174 16.8299 26.9597 15.3928C26.8019 13.9556 26.1885 12.6047 25.2048 11.5336ZM14.936 25.7329C13.7377 25.7435 12.5753 25.3297 11.6599 24.5665C11.6941 24.5327 11.7953 24.499 11.8295 24.4666L17.2669 21.3669C17.4021 21.2887 17.5139 21.1765 17.591 21.0419C17.6681 20.9072 17.7078 20.7548 17.706 20.6002V13.0334L20.0027 14.3335C20.0369 14.3335 20.0369 14.3659 20.0369 14.401V20.6663C20.0436 21.3308 19.9165 21.9899 19.6629 22.6055C19.4094 23.2211 19.0344 23.7808 18.5599 24.2522C18.0853 24.7235 17.5206 25.0972 16.8985 25.3513C16.2764 25.6055 15.6093 25.7352 14.936 25.7329ZM3.92441 21.0996C3.31706 20.0669 3.11461 18.8667 3.31706 17.7003C3.35126 17.7327 3.41965 17.7679 3.48668 17.8003L8.92408 20.8999C9.05544 20.9819 9.20771 21.0255 9.36318 21.0255C9.51865 21.0255 9.67093 20.9819 9.80228 20.8999L16.4558 17.0996V19.7321C16.4558 19.7672 16.4558 19.7996 16.4229 19.7996L10.9171 22.9329C8.48499 24.3329 5.34292 23.4999 3.92441 21.0996ZM2.50863 9.36815C3.11658 8.34778 4.0568 7.56072 5.17604 7.13525V13.5343C5.17604 13.8353 5.34566 14.135 5.61513 14.301L12.27 18.1013L9.9719 19.4014C9.93907 19.4014 9.90487 19.4351 9.90487 19.4014L4.39907 16.2667C3.81175 15.9401 3.29615 15.5015 2.8823 14.9764C2.46846 14.4512 2.16465 13.85 1.98858 13.2078C1.8125 12.5657 1.76768 11.8953 1.85673 11.2359C1.94578 10.5764 2.16692 9.94106 2.50726 9.3668M21.4212 13.7003L14.7678 9.90005L17.0645 8.6C17.0973 8.6 17.1329 8.56625 17.1329 8.6L22.6373 11.732C23.2202 12.0631 23.7309 12.5047 24.1401 13.0314C24.5493 13.5581 24.8489 14.1595 25.0216 14.801C25.1942 15.4425 25.2366 16.1113 25.1462 16.769C25.0558 17.4267 24.8345 18.0603 24.4949 18.6332C23.8951 19.653 22.9508 20.432 21.8275 20.8337V14.4671C21.8385 14.3147 21.8064 14.1622 21.7346 14.0268C21.6629 13.8914 21.5544 13.7783 21.4212 13.7003ZM23.6837 10.2997C23.6328 10.2585 23.5762 10.2249 23.5155 10.1997L18.0781 7.10015C17.9467 7.01806 17.7945 6.97448 17.639 6.97448C17.4835 6.97448 17.3312 7.01806 17.1999 7.10015L10.545 10.9004V8.26655C10.545 8.2328 10.545 8.19905 10.5792 8.19905L16.0851 5.06705C16.6675 4.73423 17.311 4.51845 17.9784 4.43212C18.6457 4.34579 19.3238 4.39063 19.9735 4.56404C20.6232 4.73746 21.2318 5.03604 21.7641 5.44257C22.2964 5.8491 22.7419 6.35555 23.075 6.93275C23.6837 7.9331 23.8862 9.13325 23.6837 10.2997ZM9.29615 14.9666L6.99808 13.6666C6.96525 13.6666 6.96525 13.6328 6.96525 13.599V7.33505C6.96471 6.66955 7.09713 6.01048 7.35493 5.39553C7.61274 4.78059 7.99086 4.22185 8.46768 3.75127C8.9445 3.28069 9.51065 2.90751 10.1338 2.65308C10.7568 2.39865 11.4247 2.26797 12.099 2.2685C13.2973 2.25782 14.4597 2.67168 15.3751 3.4349C15.3242 3.47601 15.2675 3.50966 15.2069 3.5348L9.76945 6.63305C9.63427 6.71133 9.52247 6.82348 9.44536 6.95814C9.36825 7.0928 9.32857 7.24518 9.33035 7.39985V14.9666H9.29615ZM10.545 12.3003L13.5175 10.5994L16.4899 12.3003V15.6659L13.5175 17.3669L10.545 15.6659V12.3003Z" fill="white"/>
</svg>
