<svg width="22" height="25" viewBox="0 0 22 25" fill="none" xmlns="http://www.w3.org/2000/svg">
<path fill-rule="evenodd" clip-rule="evenodd" d="M0.559938 1.83307C0.598125 1.51201 0.710683 1.20428 0.888664 0.934358C1.06665 0.664433 1.30514 0.43975 1.58519 0.278171C1.86525 0.116592 2.17913 0.022572 2.50189 0.00358676C2.82466 -0.0153985 3.1474 0.041174 3.44447 0.168807C4.94612 0.810755 8.3114 2.33644 12.5816 4.80102C16.8533 7.26701 19.858 9.4205 21.1631 10.3976C22.2773 11.2332 22.2801 12.8904 21.1645 13.7289C19.8721 14.7003 16.9042 16.8255 12.5816 19.3226C8.25484 21.8197 4.92915 23.327 3.44164 23.9605C2.16057 24.5077 0.726788 23.6777 0.559938 22.2962C0.364808 20.6815 0 17.015 0 12.0632C0 7.1143 0.363394 3.44925 0.559938 1.83307Z" fill="white"/>
</svg>
