<svg width="298" height="298" viewBox="0 0 298 298" fill="none" xmlns="http://www.w3.org/2000/svg">
<path d="M134.36 0.160034V30.1042C116.183 32.392 98.7783 38.844 83.5018 48.9582C68.2253 59.0723 55.4886 72.5756 46.2831 88.4172C37.0775 104.259 31.6515 122.011 30.4273 140.293C29.203 158.574 32.2137 176.892 39.2248 193.819C46.236 210.747 57.0586 225.828 70.8501 237.889C84.6417 249.95 101.03 258.666 118.74 263.357C136.45 268.049 155.004 268.59 172.957 264.938C190.91 261.286 207.778 253.54 222.249 242.303L243.425 263.481C216.869 285.251 183.579 297.124 149.241 297.072C67.0517 297.072 0.428009 230.442 0.428009 148.244C0.428009 71.0766 59.1646 7.61632 134.36 0.160034ZM297.31 163.127C294.43 192.221 283.002 219.812 264.467 242.422L243.291 221.259C256.41 204.406 264.729 184.32 267.369 163.127H297.31ZM164.152 0.160034C198.304 3.6036 230.216 18.7437 254.487 43.0172C278.758 67.2907 293.897 99.2063 297.34 133.361H267.384C264.072 107.134 252.131 82.7536 233.442 64.0595C214.753 45.3655 190.376 33.42 164.152 30.1042V0.160034Z" fill="#00070B"/>
</svg>
