<svg width="42" height="34" viewBox="0 0 42 34" fill="none" xmlns="http://www.w3.org/2000/svg">
<path d="M41.8333 12.8334V25.3334C41.8333 27.5435 40.9554 29.6631 39.3926 31.2259C37.8298 32.7887 35.7101 33.6667 33.5 33.6667H8.50001C6.28987 33.6667 4.17025 32.7887 2.60745 31.2259C1.04465 29.6631 0.166672 27.5435 0.166672 25.3334V12.8334H41.8333ZM10.6042 21.1667H10.5833C10.3098 21.1681 10.0391 21.2233 9.78687 21.3293C9.53464 21.4352 9.30574 21.5898 9.11325 21.7843C8.7245 22.1769 8.50766 22.7079 8.51042 23.2605C8.51179 23.534 8.56703 23.8047 8.67299 24.0569C8.77895 24.3092 8.93356 24.5381 9.12798 24.7305C9.3224 24.923 9.55284 25.0753 9.80612 25.1788C10.0594 25.2822 10.3306 25.3347 10.6042 25.3334C11.1567 25.3334 11.6866 25.1139 12.0773 24.7232C12.468 24.3325 12.6875 23.8026 12.6875 23.25C12.6875 22.6975 12.468 22.1676 12.0773 21.7769C11.6866 21.3862 11.1567 21.1667 10.6042 21.1667ZM23.0833 21.1667H18.9167C18.3641 21.1667 17.8342 21.3862 17.4435 21.7769C17.0528 22.1676 16.8333 22.6975 16.8333 23.25C16.8333 23.8026 17.0528 24.3325 17.4435 24.7232C17.8342 25.1139 18.3641 25.3334 18.9167 25.3334H23.0833C23.6359 25.3334 24.1658 25.1139 24.5565 24.7232C24.9472 24.3325 25.1667 23.8026 25.1667 23.25C25.1667 22.6975 24.9472 22.1676 24.5565 21.7769C24.1658 21.3862 23.6359 21.1667 23.0833 21.1667ZM33.5 0.333374C35.7101 0.333374 37.8298 1.21135 39.3926 2.77415C40.9554 4.33695 41.8333 6.45657 41.8333 8.66671H0.166672C0.166672 6.45657 1.04465 4.33695 2.60745 2.77415C4.17025 1.21135 6.28987 0.333374 8.50001 0.333374H33.5Z" fill="url(#paint0_linear_89_31)"/>
<defs>
<linearGradient id="paint0_linear_89_31" x1="21" y1="0.333374" x2="21" y2="33.6667" gradientUnits="userSpaceOnUse">
<stop stop-color="#BBFF00"/>
<stop offset="1" stop-color="#709900"/>
</linearGradient>
</defs>
</svg>
