<svg width="42" height="42" viewBox="0 0 42 42" fill="none" xmlns="http://www.w3.org/2000/svg">
<path d="M35.5833 0.166626H6.41663C2.87496 0.166626 0.166626 2.87496 0.166626 6.41663V35.5833C0.166626 39.125 2.87496 41.8333 6.41663 41.8333H35.5833C39.125 41.8333 41.8333 39.125 41.8333 35.5833V6.41663C41.8333 2.87496 39.125 0.166626 35.5833 0.166626ZM12.6666 31.4166C12.6666 32.6666 11.8333 33.5 10.5833 33.5C9.33329 33.5 8.49996 32.6666 8.49996 31.4166V23.0833C8.49996 21.8333 9.33329 21 10.5833 21C11.8333 21 12.6666 21.8333 12.6666 23.0833V31.4166ZM23.0833 31.4166C23.0833 32.6666 22.25 33.5 21 33.5C19.75 33.5 18.9166 32.6666 18.9166 31.4166V10.5833C18.9166 9.33329 19.75 8.49996 21 8.49996C22.25 8.49996 23.0833 9.33329 23.0833 10.5833V31.4166ZM33.5 31.4166C33.5 32.6666 32.6666 33.5 31.4166 33.5C30.1666 33.5 29.3333 32.6666 29.3333 31.4166V18.9166C29.3333 17.6666 30.1666 16.8333 31.4166 16.8333C32.6666 16.8333 33.5 17.6666 33.5 18.9166V31.4166Z" fill="url(#paint0_linear_89_35)"/>
<defs>
<linearGradient id="paint0_linear_89_35" x1="21" y1="0.166626" x2="21" y2="41.8333" gradientUnits="userSpaceOnUse">
<stop stop-color="#BBFF00"/>
<stop offset="1" stop-color="#709900"/>
</linearGradient>
</defs>
</svg>
